HIERARCHY
ROOT hip
{
  OFFSET 0 0 0
  CHANNELS 6 Xposition Yposition Zposition Zrotation Yrotation Xrotation
  JOINT abdomen
  {
    OFFSET 0 20.6881 -0.73152
    CHANNELS 3 Zrotation Xrotation Yrotation
    JOINT chest
    {
      OFFSET 0 11.7043 -0.48768
      CHANNELS 3 Zrotation Xrotation Yrotation
      JOINT neck
      {
        OFFSET 0 22.1894 -2.19456
        CHANNELS 3 Zrotation Xrotation Yrotation
        JOINT head
        {
          OFFSET -0.24384 7.07133 1.2192
          CHANNELS 3 Zrotation Xrotation Yrotation
          JOINT leftEye
          {
            OFFSET 4.14528 8.04674 8.04672
            CHANNELS 3 Zrotation Xrotation Yrotation
            End Site
            {
              OFFSET 1 0 0
            }
          }
          JOINT rightEye
          {
            OFFSET -3.6576 8.04674 8.04672
            CHANNELS 3 Zrotation Xrotation Yrotation
            End Site
            {
              OFFSET 1 0 0
            }
          }
        }
      }
      JOINT rCollar
      {
        OFFSET -2.68224 19.2634 -4.8768
        CHANNELS 3 Zrotation Xrotation Yrotation
        JOINT rShldr
        {
          OFFSET -8.77824 -1.95073 1.46304
          CHANNELS 3 Zrotation Xrotation Yrotation
          JOINT rForeArm
          {
            OFFSET -28.1742 -1.7115 0.48768
            CHANNELS 3 Zrotation Xrotation Yrotation
            JOINT rHand
            {
              OFFSET -22.5879 0.773209 7.07136
              CHANNELS 3 Zrotation Xrotation Yrotation
              JOINT rThumb1
              {
                OFFSET -1.2192 -0.487915 3.41376
                CHANNELS 3 Zrotation Xrotation Yrotation
                JOINT rThumb2
                {
                  OFFSET -3.37035 -0.52449 3.41376
                  CHANNELS 3 Zrotation Xrotation Yrotation
                  End Site
                  {
                    OFFSET -1.78271 -1.18214 1.43049
                  }
                }
              }
              JOINT rIndex1
              {
                OFFSET -7.75947 0.938293 5.60832
                CHANNELS 3 Zrotation Xrotation Yrotation
                JOINT rIndex2
                {
                  OFFSET -2.54057 -0.884171 1.56538
                  CHANNELS 3 Zrotation Xrotation Yrotation
                  End Site
                  {
                    OFFSET -1.62519 -0.234802 1.16502
                  }
                }
              }
              JOINT rMid1
              {
                OFFSET -8.24714 1.18213 3.41376
                CHANNELS 3 Zrotation Xrotation Yrotation
                JOINT rMid2
                {
                  OFFSET -3.10165 -0.590103 1.0647
                  CHANNELS 3 Zrotation Xrotation Yrotation
                  End Site
                  {
                    OFFSET -2.48547 -0.328903 0.83742
                  }
                }
              }
              JOINT rRing1
              {
                OFFSET -8.82822 0.546677 1.51678
                CHANNELS 3 Zrotation Xrotation Yrotation
                JOINT rRing2
                {
                  OFFSET -2.60934 -0.819778 -0.0198488
                  CHANNELS 3 Zrotation Xrotation Yrotation
                  End Site
                  {
                    OFFSET -2.33842 -0.294052 0.168128
                  }
                }
              }
              JOINT rPinky1
              {
                OFFSET -8.27202 -0.0477905 -0.4584
                CHANNELS 3 Zrotation Xrotation Yrotation
                JOINT rPinky2
                {
                  OFFSET -1.82734 -0.647385 -0.700984
                  CHANNELS 3 Zrotation Xrotation Yrotation
                  End Site
                  {
                    OFFSET -1.69225 -0.51767 -0.607171
                  }
                }
              }
            }
          }
        }
      }
      JOINT lCollar
      {
        OFFSET 2.68224 19.2634 -4.8768
        CHANNELS 3 Zrotation Xrotation Yrotation
        JOINT lShldr
        {
          OFFSET 8.77824 -1.95073 1.46304
          CHANNELS 3 Zrotation Xrotation Yrotation
          JOINT lForeArm
          {
            OFFSET 28.1742 -1.7115 0.48768
            CHANNELS 3 Zrotation Xrotation Yrotation
            JOINT lHand
            {
              OFFSET 22.5879 0.773209 7.07136
              CHANNELS 3 Zrotation Xrotation Yrotation
              JOINT lThumb1
              {
                OFFSET 1.2192 -0.487915 3.41376
                CHANNELS 3 Zrotation Xrotation Yrotation
                JOINT lThumb2
                {
                  OFFSET 3.37035 -0.52449 3.41376
                  CHANNELS 3 Zrotation Xrotation Yrotation
                  End Site
                  {
                    OFFSET 1.78271 -1.18214 1.43049
                  }
                }
              }
              JOINT lIndex1
              {
                OFFSET 7.75947 0.938293 5.60832
                CHANNELS 3 Zrotation Xrotation Yrotation
                JOINT lIndex2
                {
                  OFFSET 2.54057 -0.884171 1.56538
                  CHANNELS 3 Zrotation Xrotation Yrotation
                  End Site
                  {
                    OFFSET 1.62519 -0.234802 1.16502
                  }
                }
              }
              JOINT lMid1
              {
                OFFSET 8.24714 1.18213 3.41376
                CHANNELS 3 Zrotation Xrotation Yrotation
                JOINT lMid2
                {
                  OFFSET 3.10165 -0.590103 1.0647
                  CHANNELS 3 Zrotation Xrotation Yrotation
                  End Site
                  {
                    OFFSET 2.48547 -0.328903 0.83742
                  }
                }
              }
              JOINT lRing1
              {
                OFFSET 8.82822 0.546677 1.51678
                CHANNELS 3 Zrotation Xrotation Yrotation
                JOINT lRing2
                {
                  OFFSET 2.60934 -0.819778 -0.0198488
                  CHANNELS 3 Zrotation Xrotation Yrotation
                  End Site
                  {
                    OFFSET 2.33842 -0.294052 0.168128
                  }
                }
              }
              JOINT lPinky1
              {
                OFFSET 8.27202 -0.0477905 -0.4584
                CHANNELS 3 Zrotation Xrotation Yrotation
                JOINT lPinky2
                {
                  OFFSET 1.82734 -0.647385 -0.700984
                  CHANNELS 3 Zrotation Xrotation Yrotation
                  End Site
                  {
                    OFFSET 1.69225 -0.51767 -0.607171
                  }
                }
              }
            }
          }
        }
      }
    }
  }
  JOINT rButtock
  {
    OFFSET -8.77824 4.35084 1.2192
    CHANNELS 3 Zrotation Xrotation Yrotation
    JOINT rThigh
    {
      OFFSET 0 -1.70687 -2.19456
      CHANNELS 3 Zrotation Xrotation Yrotation
      JOINT rShin
      {
        OFFSET 0 -36.8199 0.73152
        CHANNELS 3 Zrotation Xrotation Yrotation
        JOINT rFoot
        {
          OFFSET 0.73152 -45.1104 -5.12064
          CHANNELS 3 Zrotation Xrotation Yrotation
          End Site
          {
            OFFSET -1.1221 -3.69964 12.103
          }
        }
      }
    }
  }
  JOINT lButtock
  {
    OFFSET 8.77824 4.35084 1.2192
    CHANNELS 3 Zrotation Xrotation Yrotation
    JOINT lThigh
    {
      OFFSET 0 -1.70687 -2.19456
      CHANNELS 3 Zrotation Xrotation Yrotation
      JOINT lShin
      {
        OFFSET 0 -36.8199 0.73152
        CHANNELS 3 Zrotation Xrotation Yrotation
        JOINT lFoot
        {
          OFFSET -0.73152 -45.1104 -5.12064
          CHANNELS 3 Zrotation Xrotation Yrotation
          End Site
          {
            OFFSET 1.1221 -3.69964 12.103
          }
        }
      }
    }
  }
}
MOTION
Frames:	4
Frame Time:	0.00833333
58.9306 51.8874 -44.3666 0.0 0.0 0.0 2.72247 0.000518503 0.073617 0.750803 0.0131639 0.129923 -4.19192e-14 -1.59028e-15 1.98785e-16 -1.26222e-13 -6.36111e-15 6.44497e-16 -0.0 0.0 0.0 -0.0 0.0 0.0 -2.04268e-14 6.3285e-17 2.98177e-16 -4.38704e-13 1.47225e-15 5.96354e-16 -7.60058e-12 2.31783e-12 9.22361e-14 -8.68813e-11 -1.99726e-12 1.84472e-13 -2.04966e-10 6.96229e-13 6.48833e-13 -3.53979e-10 1.20225e-12 1.12274e-12 -2.04962e-10 6.95746e-13 6.3293e-13 7.73091 5.47488 0.417314 -2.04967e-10 6.95746e-13 6.48833e-13 2.90554 0.965183 0.102902 -2.04964e-10 6.96045e-13 6.49628e-13 10.2786 0.731801 0.0259123 -2.0497e-10 6.96541e-13 6.61555e-13 2.22167 -0.733487 -0.20892 -2.05243e-14 6.7944e-17 -1.98785e-16 -4.41775e-13 1.57164e-15 -1.98785e-16 -7.57976e-12 -2.22182e-12 1.17681e-13 -8.68698e-11 2.55066e-12 2.00375e-13 -2.04894e-10 7.11566e-13 6.83819e-13 -3.53832e-10 1.23087e-12 1.17521e-12 -2.04898e-10 7.11252e-13 6.87e-13 -7.73091 5.47488 -0.417314 -2.04894e-10 7.11351e-13 6.77458e-13 -2.90554 0.965183 -0.102902 -2.04898e-10 7.11848e-13 6.78253e-13 -10.2786 0.731801 -0.0259123 -2.04888e-10 7.14035e-13 6.64736e-13 -2.22167 -0.733487 0.20892 -2.03217e-16 0.0 -3.88251e-19 2.53465 -8.65179 -0.274595 0.00738431 10.0929 0.189417 -0.518663 -1.45207 0.0287982 2.03217e-16 0.0 3.88251e-19 1.60955 -1.93183 -0.00956061 0.00858727 -2.07865 0.0705272 0.45709 3.99949 -0.132213
59.4373 54.613 -37.226 0.8881 2.2073 1.0028 1.19754 5.29117 0.433535 1.86101 0.572114 0.0375538 -1.59951 2.30367 -2.17119 2.76871 -7.66325 -3.47588 -0.0 0.0 0.0 -0.0 0.0 0.0 1.06543e-15 2.67074e-14 -3.54396e-15 -2.6693 0.206013 17.2668 -9.41843 -6.27935 11.9039 0.00512486 1.58808 0.22288 -5.91541e-10 -1.88444e-09 -1.78407e-10 -1.02301e-09 -3.25531e-09 -3.05197e-10 -5.91538e-10 -1.88444e-09 -1.78419e-10 7.73091 5.47488 0.417314 -5.91542e-10 -1.88444e-09 -1.78407e-10 2.90554 0.965183 0.102902 -5.9154e-10 -1.88444e-09 -1.78407e-10 10.2786 0.731801 0.0259123 -5.91546e-10 -1.88443e-09 -1.78397e-10 2.22167 -0.733487 -0.20892 9.14303e-16 2.67114e-14 -3.98889e-15 4.29949 -1.23033 -17.2885 8.12984 -5.04594 -10.8913 -0.0549119 5.20203 -0.720257 1.31313e-10 -1.99126e-09 3.81603e-10 2.32717e-10 -3.45196e-09 6.54734e-10 1.3131e-10 -1.99126e-09 3.81607e-10 -7.73091 5.47488 -0.417314 1.3131e-10 -1.99126e-09 3.81595e-10 -2.90554 0.965183 -0.102902 1.31308e-10 -1.99126e-09 3.81598e-10 -10.2786 0.731801 -0.0259123 1.31318e-10 -1.99126e-09 3.81586e-10 -2.22167 -0.733487 0.20892 -2.03217e-16 0.0 -3.88251e-19 0.124136 -19.703 -1.3551 0.0166775 9.96256 0.269673 -0.316855 -1.45935 0.00831433 2.03217e-16 0.0 3.88251e-19 2.94919 -14.1267 -0.226408 0.0115806 -2.07822 0.0969913 0.304774 4.03321 -0.110204
59.4908 54.6052 -37.2307 1.1616 2.2798 0.9898 -0.491417 10.8825 0.82619 3.03542 1.16474 -0.0599973 -3.10163 4.72527 -4.48225 4.66115 -15.6909 -7.36595 -0.0 0.0 0.0 -0.0 0.0 0.0 2.5453e-14 5.62826e-14 -8.84592e-15 -5.6191 0.354309 35.5293 -16.5729 -12.0097 24.922 -0.00291038 3.26608 0.458961 -1.01815e-09 -3.94507e-09 -3.72884e-10 -1.7613e-09 -6.81485e-09 -6.37831e-10 -1.01814e-09 -3.94507e-09 -3.72892e-10 7.73091 5.47488 0.417314 -1.01815e-09 -3.94507e-09 -3.72885e-10 2.90554 0.965183 0.102902 -1.01815e-09 -3.94507e-09 -3.72886e-10 10.2786 0.731801 0.0259123 -1.01815e-09 -3.94507e-09 -3.72877e-10 2.22167 -0.733487 -0.20892 2.52418e-14 5.62858e-14 -9.23728e-15 8.09678 -2.16557 -35.5887 14.6684 -9.7728 -22.6668 0.0315502 10.7021 -1.50218 4.92073e-10 -4.15797e-09 8.00827e-10 8.62236e-10 -7.20841e-09 1.37414e-09 4.92071e-10 -4.15796e-09 8.00832e-10 -7.73091 5.47488 -0.417314 4.92068e-10 -4.15797e-09 8.00816e-10 -2.90554 0.965183 -0.102902 4.92067e-10 -4.15796e-09 8.00821e-10 -10.2786 0.731801 -0.0259123 4.92078e-10 -4.15796e-09 8.00811e-10 -2.22167 -0.733487 0.20892 -2.03217e-16 0.0 -3.88251e-19 -2.95664 -31.3669 -2.7335 0.0268972 9.82473 0.35438 -0.103992 -1.46711 -0.0132937 2.03217e-16 0.0 3.88251e-19 4.24578 -27.0179 -0.503005 0.0147452 -2.07776 0.124974 0.14404 4.06885 -0.0869804
59.5056 54.6078 -37.2281 1.1959 2.3003 1.007 -2.05873 15.8697 1.19332 4.08683 1.69001 -0.147254 -4.27279 6.87117 -6.55558 5.33714 -22.6371 -11.2077 -0.0 0.0 0.0 -0.0 0.0 0.0 4.40498e-14 7.99957e-14 -1.12282e-14 -8.32442 0.400231 51.8019 -20.7566 -15.5695 37.0664 -0.0217996 4.76395 0.670701 -1.36469e-09 -5.6547e-09 -5.36517e-10 -2.36108e-09 -9.76834e-09 -9.17835e-10 -1.36469e-09 -5.6547e-09 -5.36522e-10 7.73091 5.47488 0.417314 -1.36469e-09 -5.6547e-09 -5.3652e-10 2.90554 0.965183 0.102902 -1.36469e-09 -5.6547e-09 -5.3652e-10 10.2786 0.731801 0.0259123 -1.3647e-09 -5.6547e-09 -5.36513e-10 2.22167 -0.733487 -0.20892 4.37914e-14 7.99982e-14 -1.15691e-14 11.0054 -2.38657 -51.9165 18.8614 -12.9472 -33.5046 0.240288 15.596 -2.23417 8.03727e-10 -5.97521e-09 1.14344e-09 1.40581e-09 -1.03583e-08 1.96185e-09 8.03726e-10 -5.97521e-09 1.14345e-09 -7.73091 5.47488 -0.417314 8.0372e-10 -5.97521e-09 1.14343e-09 -2.90554 0.965183 -0.102902 8.0372e-10 -5.97521e-09 1.14344e-09 -10.2786 0.731801 -0.0259123 8.03731e-10 -5.97521e-09 1.14343e-09 -2.22167 -0.733487 0.20892 -2.03217e-16 0.0 -3.88251e-19 -6.34315 -41.7365 -4.40323 0.0363754 9.70176 0.429998 0.086745 -1.47391 -0.0326539 2.03217e-16 0.0 3.88251e-19 5.28459 -38.5138 -0.817399 0.017566 -2.07735 0.14992 6.55665e-05 4.10067 -0.0661784
